<svg width="1006" height="550" viewBox="0 0 1006 1707" fill="none" xmlns="http://www.w3.org/2000/svg">
<path d="M502.5 9L5 848.5L503 1700L1000 849.5L502.5 9Z" fill="#D9D9D9" stroke="black"/>
<path d="M469.333 102.267C450.8 133.6 432.267 165.067 428 172C423.867 178.933 416 192.133 410.667 201.333C405.333 210.533 393.6 230.267 384.667 245.333C366.533 275.733 357.333 291.467 348 307.333C344.533 313.2 328.133 341.067 311.333 369.333C294.667 397.6 275.867 429.333 269.6 440C263.467 450.667 244.8 482.133 228.267 510C184.267 584.4 166.933 613.733 142.4 655.333C114.933 701.867 44.6666 820.8 35.7333 835.867C32.1333 842 29.4666 847.733 29.8666 848.8C30.5333 850.667 47.8666 880.8 67.3333 914C73.3333 924.267 89.8667 952.8 104 977.333C118.133 1001.87 133.733 1028.93 138.667 1037.33C143.6 1045.73 169.067 1089.87 195.333 1135.33C221.6 1180.8 252.533 1234.13 264 1254C275.467 1273.73 287.333 1294.13 290.267 1299.33C293.2 1304.4 306.533 1327.6 319.867 1350.67C333.333 1373.73 349.067 1401.07 355.067 1411.33C368.667 1434.93 390.667 1472.93 403.333 1494.67C408.667 1503.87 414.4 1513.73 416 1516.67C417.6 1519.6 424.133 1530.93 430.533 1542C436.933 1552.93 448 1571.87 454.933 1584C492 1648 498.133 1658.53 500 1661.2C501.867 1664 502.4 1663.47 512.933 1645.73C522.4 1629.73 606.4 1485.6 618 1465.33C620.4 1461.33 656.933 1398.53 699.2 1326C741.6 1253.33 792.533 1166.13 812.4 1132C832.267 1097.87 854.533 1059.73 861.867 1047.33C869.2 1034.8 878.267 1019.2 882 1012.67C888.133 1002 896.4 987.733 931.333 928C947.2 900.933 964 872.133 970.667 860.533L976.933 849.733L971.333 839.867C968.267 834.4 960.4 820.933 954 810C942.8 791.2 933.067 774.667 918.667 750C915.2 744.133 902.533 722.533 890.4 702C878.267 681.467 859.2 649.067 848 630C836.8 610.933 826 592.667 824 589.333C820.533 583.467 817.467 578.267 788 528C780.533 515.2 771.867 500.4 768.667 495.333C765.6 490.133 753.6 469.733 742 450C730.4 430.133 715.333 404.667 708.667 393.333C701.867 382 694.267 369.067 691.733 364.667C689.2 360.267 664.133 317.6 636 270C608 222.267 579.867 174.667 573.6 164C547.067 118.667 506.8 50.5334 504.667 47.6001C503.2 45.4668 498.8 52.2668 469.333 102.267ZM338 525.333C404.267 531.6 454 567.733 473.6 624C484.4 655.067 480.933 694.267 464.533 725.2C446.8 758.8 411.067 788.533 366.133 807.2C363.2 808.4 361.2 809.6 361.467 810C361.867 810.267 366.8 811.467 372.667 812.667C410.533 820.533 443.467 838.267 466.267 863.2C500.267 900.4 508.4 962.133 486.133 1013.6C477.6 1033.33 469.733 1044.8 453.333 1061.47C424.933 1090.27 393.333 1106.4 352 1113.2C319.467 1118.53 293.333 1118.13 262.667 1111.87C200.8 1099.33 153.6 1061.6 122.4 1000C118.133 991.6 114.667 984 114.667 983.067C114.667 978.933 119.867 982.133 125.867 990C133.867 1000.27 156.4 1022.93 167.6 1031.87C195.2 1053.73 222.667 1067.2 252.4 1073.47C270.4 1077.2 299.867 1077.6 315.2 1074.13C347.6 1066.93 374.267 1049.07 391.867 1022.67C405.6 1002.13 411.867 981.733 412.933 953.333C414.267 920.533 406.133 894.533 386 867.333C369.733 845.2 343.067 829.6 307.733 821.2C296 818.4 294.667 817.733 294.667 815.067C294.667 813.333 295.467 812 296.4 812C299.6 812 325.2 798.8 335.467 791.867C356.267 777.867 377.2 753.733 386.933 732.267C397.2 709.333 401.333 675.733 396.667 651.333C389.6 613.6 365.2 586 329.333 574.933C307.067 568.133 290.667 568 264.267 574.667C236.933 581.6 212.267 596.267 199.067 613.467C192.267 622.4 184.933 637.867 182.533 648.267C181.067 655.067 180.533 656 177.733 656C174.667 656 174.667 655.867 174.667 639.6C174.667 622.533 176.267 613.6 181.6 600C196.933 561.333 235.867 532.8 281.333 526.8C287.6 526 294.133 525.067 296 524.8C303.333 523.867 324.133 524.133 338 525.333ZM716.133 525.333C752.133 528.933 778.667 541.067 802.267 564.8C812.933 575.6 815.333 578.933 821.2 590.933C830 609.067 832 617.2 832.933 638.267L833.733 656H830.4C827.333 656 826.667 654.933 823.333 644.267C818.4 628.133 811.733 616.933 800.8 605.867C784.4 589.467 768.667 581.067 741.6 574.4C727.6 570.933 722.133 570.133 710 570.267C644.533 570.533 601.6 621.6 609.2 690.267C612.933 723.6 625.2 748.8 649.2 772.8C662.533 786.267 679.333 798 696.533 806C703.2 809.067 709.733 812 711.067 812.4C712.267 812.933 713.333 814.4 713.333 815.733C713.333 817.6 711.6 818.533 705.067 819.867C693.333 822.133 671.067 829.733 661.067 834.8C636.133 847.333 617.867 866.533 605.333 893.867C589.2 928.933 590 973.733 607.333 1008.93C638.667 1072.67 716.267 1094.8 791.333 1061.6C805.333 1055.47 823.2 1044.53 837.333 1033.6C850.533 1023.2 872.667 1001.6 881.867 989.6C888.267 981.6 892 979.2 892 983.333C892 986.8 874.4 1020.13 867.333 1030C858.933 1041.73 845.333 1057.47 836.667 1065.47C791.067 1107.33 724.4 1124.93 655.333 1113.33C617.2 1106.8 584.267 1091.07 558.4 1066.8C523.6 1034.27 504.8 985.467 509.333 940C512.8 904.4 524.133 879.6 547.2 856.933C570.133 834.4 600.8 819.2 637.733 812C641.867 811.2 645.333 809.867 645.333 809.2C645.333 808.533 644.533 808 643.6 808C640.4 808 610 792.133 598 784.267C583.733 774.8 564.133 756.667 554.667 744.267C545.333 732 535.333 711.2 531.2 695.333C526.667 678.133 526.133 651.333 529.867 636.667C539.733 598.933 560 570.933 592.8 550C624.667 529.6 669.2 520.667 716.133 525.333ZM300 1185.6C313.733 1192.53 313.6 1208.93 299.6 1217.33L295.6 1219.87L300.8 1222C307.867 1224.93 310.4 1227.6 312.133 1233.6C316.4 1249.6 299.2 1263.47 280.933 1258.53C275.6 1257.07 267.467 1250.8 265.067 1246.13C263.867 1243.73 264.267 1243.87 267.467 1246.8C276.267 1254.93 286.4 1256.8 294.4 1252C305.467 1245.2 304.267 1228.67 292.267 1222.53L288 1220.27L291.333 1218.13C299.067 1213.07 302.133 1202.53 298 1194.8C293.333 1185.73 277.867 1186.67 272.4 1196.27C271.333 1198.27 270.8 1198.67 270.667 1197.33C270.667 1193.6 276 1186.53 280.4 1184.67C286.667 1181.87 293.333 1182.27 300 1185.6ZM670.667 1186.13C670.667 1187.73 670.933 1191.07 671.333 1193.47L672 1198L669.867 1193.07C667.867 1188.53 667.2 1188.13 660.133 1187.07C635.467 1183.73 620.133 1190.67 615.2 1207.6C612.4 1217.07 613.2 1229.33 617.067 1236.93C620.933 1244.27 630.667 1252.67 638 1254.67C646.933 1257.2 658.933 1255.73 665.467 1251.33L670.8 1247.87L668 1253.33L665.333 1258.67L654.933 1258.93C638.133 1259.47 632.8 1258.93 625.067 1256C592.4 1243.87 594.533 1195.33 628.267 1184.67C632.133 1183.33 639.733 1182.93 652.267 1183.07C670 1183.33 670.667 1183.47 670.667 1186.13ZM749.2 1189.33L749.067 1195.33L747.6 1190.93L746.267 1186.4L733.867 1186.93C727.067 1187.07 721.2 1187.73 720.667 1188.27C719.2 1189.73 718.4 1231.6 719.6 1244.67C720.667 1256.53 720.667 1256.67 724.667 1257.47C726.933 1258 722.4 1258.4 714.667 1258.4C706.933 1258.4 702.133 1258 704 1257.47C706.933 1256.67 707.467 1255.47 708.4 1248.67C709.733 1238.67 709.067 1190 707.6 1188.4C706.933 1187.87 700.933 1187.33 694.267 1187.33H682L680.4 1192L678.8 1196.67V1190L678.667 1183.33H714H749.333L749.2 1189.33ZM372.667 1208.93C386.933 1243.73 393.467 1257.33 395.467 1257.33C396.533 1257.33 397.333 1257.73 397.333 1258.27C397.333 1258.93 392.533 1259.33 386.667 1259.33C380.8 1259.33 376 1258.93 376 1258.27C376 1257.73 376.933 1257.33 378.133 1257.33C380.933 1257.33 380.133 1250.93 376.133 1242.13L373.467 1236H356.933H340.4L337.6 1243.6C332.8 1257.07 332.8 1257.33 335.867 1257.33C337.467 1257.33 338.667 1257.87 338.667 1258.53C338.667 1259.07 335.333 1259.6 331.333 1259.47C327.333 1259.47 324 1258.93 324 1258.4C324 1257.87 325.067 1257.33 326.4 1257.33C327.733 1257.33 329.333 1255.73 330.267 1253.6C334.533 1242.93 347.333 1210.8 352.4 1198.4C356.267 1188.4 358.667 1184 360.133 1184C361.733 1184 365.2 1191.2 372.667 1208.93ZM434.8 1185.2L430.267 1186L438.4 1196.67C442.8 1202.53 448.267 1209.33 450.267 1211.87L454.133 1216.4L460.667 1209.47C464.133 1205.73 470 1198.93 473.467 1194.27L480 1186L475.6 1185.2C473.067 1184.67 475.6 1184.4 482 1184.4C487.867 1184.4 491.067 1184.67 489.067 1184.93C485.067 1185.6 477.2 1193.73 464.4 1210.27L456.933 1220L469.733 1235.6C483.867 1253.07 487.467 1256.8 491.333 1257.73C492.8 1258.13 487.467 1258.4 479.333 1258.27C471.333 1258.27 466.267 1258 468.4 1257.73C470.4 1257.47 472 1256.67 472 1256.13C472 1253.87 452.533 1228 449.2 1225.87C447.6 1224.93 422.667 1253.33 422.667 1256.27C422.667 1256.8 424.267 1257.47 426.4 1257.73C428.4 1258 425.467 1258.27 420 1258.27C414.533 1258.27 411.333 1258 412.933 1257.73C416.267 1257.07 439.733 1231.2 444.533 1222.93C445.2 1221.87 441.6 1216.27 434.8 1207.6C422.8 1192.27 416.533 1185.87 412.667 1184.93C411.2 1184.53 416.667 1184.27 424.667 1184.27C432.8 1184.4 437.333 1184.67 434.8 1185.2ZM521.2 1184.93C518 1185.47 517.6 1186.13 516.8 1193.6C515.733 1204.4 516 1234.67 517.2 1237.87C518 1240 520 1238.27 530.267 1227.2C547.6 1208.27 566.667 1186.27 566.667 1185.07C566.667 1184.53 571.867 1184.13 578.4 1184.13C584.8 1184.27 588.8 1184.67 587.333 1184.93C585.733 1185.2 582.8 1186.8 580.667 1188.53L576.8 1191.6L576.533 1216.13C576.4 1229.6 576.667 1244.27 577.067 1248.67C577.867 1255.6 578.4 1256.67 581.333 1257.47C583.333 1258 581.067 1258.4 575.333 1258.4C569.6 1258.4 567.333 1258 569.333 1257.47C572.4 1256.67 572.8 1255.73 573.733 1245.33C574.8 1233.73 574 1197.6 572.667 1196.13C571.467 1195.07 535.467 1234 519.333 1253.87L514 1260.4L513.333 1223.2L512.667 1186L508.667 1185.2C506.267 1184.67 508.533 1184.27 514.667 1184.4C520.133 1184.4 523.067 1184.67 521.2 1184.93Z" fill="url(#paint0_linear_1_2)"/>
<path d="M354.933 1200.93C352.533 1205.2 342.667 1230.27 342.667 1231.87C342.667 1233.73 370.133 1233.87 371.2 1232.13C372 1230.93 359.733 1201.87 357.467 1199.6C356.667 1198.8 355.733 1199.33 354.933 1200.93Z" fill="#010101"/>
<defs>
<linearGradient id="paint0_linear_1_2" x1="30" y1="855" x2="493.5" y2="56.5" gradientUnits="userSpaceOnUse">
<stop stop-color="#090808"/>
<stop offset="1" stop-color="#A01302"/>
</linearGradient>
</defs>
</svg>
